
<svg width="175" height="13" viewBox="0 0 175 13" fill="none" xmlns="http://www.w3.org/2000/svg">
<path fill-rule="evenodd" clip-rule="evenodd" d="M64.4618 9.73464C63.5082 9.73464 62.6185 9.78309 61.797 10.0502C61.404 10.1778 60.8371 10.2243 60.3331 10.2566C58.1644 10.3933 55.9795 10.4827 53.8219 10.6466C52.5581 10.7427 51.2409 10.803 50.1238 11.1528C49.9153 11.2178 49.4852 11.2253 49.2478 11.1749C48.3953 10.9945 47.7231 11.1627 47.054 11.351C46.2896 11.5661 45.5042 11.711 44.5663 11.7087C44.0481 11.7075 43.565 11.7626 43.1364 11.8643C37.2755 11.7804 31.2254 11.8883 25.6569 12.675C24.2904 12.7282 22.9265 12.8019 21.5669 12.9015C21.4983 12.8881 21.4259 12.8684 21.3578 12.857C21.3652 12.6797 20.9481 12.5044 20.5164 12.5438C19.0477 12.6766 17.545 12.7156 16.046 12.7274C16.0193 12.6518 15.9789 12.5726 15.8935 12.4828C15.8102 12.3961 15.5147 12.3205 15.3057 12.3327C14.6827 12.3689 13.4163 12.519 13.3686 12.5994C13.4441 12.4749 13.3005 12.2464 13.268 12.1534C13.2313 12.0486 13.0013 11.9722 12.7928 11.9427C12.053 11.8391 11.3084 11.7414 10.5644 11.6441C10.9453 11.5964 11.3289 11.5539 11.7265 11.5322C12.2028 11.5062 12.5932 11.2923 12.3045 11.0815C10.1924 9.53728 6.90304 8.66431 3.81277 7.5861C4.64481 7.48643 5.46741 7.37101 6.34346 7.32807C6.935 7.29931 7.2127 7.02513 6.81764 6.81673C5.94264 6.35504 5.29241 5.824 4.53478 5.32646H5.89444C6.60229 5.32646 6.75215 4.93016 6.23134 4.76707C4.34354 4.17419 2.31584 3.68491 0.315918 3.17358C0.740843 3.01522 1.17363 2.8797 1.62318 2.7564C1.86 2.81864 2.17018 2.83125 2.43792 2.73709C2.724 2.63664 2.98336 2.52555 3.23014 2.40816C3.4261 2.37586 3.61524 2.34118 3.82482 2.31322C4.26075 2.25373 4.36345 2.06661 4.2487 1.9177C4.55207 1.77352 4.85544 1.62934 5.15147 1.48161C7.4621 1.48437 9.76277 1.29843 12.0703 1.27361C13.3728 1.26022 14.6722 1.20152 15.9727 1.1641C16.0769 1.16134 16.1864 1.16685 16.2844 1.15464C17.8447 0.958854 19.3249 0.760704 21.0665 0.882432C22.6614 0.994704 24.3742 0.782764 26.0336 0.709097C27.6924 0.635036 29.3497 0.551125 31.0106 0.480215C31.4764 0.460124 31.9495 0.459733 32.4174 0.469582C35.1388 0.525915 37.8346 0.47037 40.4747 0.13434C40.8227 0.0898247 41.2188 0.0275803 41.5468 0.0610657C44.9011 0.405763 48.2968 0.164277 51.6679 0.193428C55.6767 0.228883 59.6917 0.112675 63.7042 0.0768261C64.9019 0.0665836 66.1007 0.118974 67.2995 0.122913C71.3633 0.135519 75.4265 0.131186 79.4898 0.149307C81.7837 0.159944 84.0754 0.203669 86.3693 0.229669C90.1742 0.27379 93.9781 0.319489 97.7841 0.357307C100.857 0.387641 103.932 0.410093 107.006 0.426639C107.734 0.430972 108.466 0.408916 109.193 0.380552C110.246 0.339582 111.263 0.346672 112.246 0.568853C112.588 0.645672 113.099 0.689004 113.435 0.632277C115.313 0.315943 117.182 0.367548 119.083 0.56767C119.585 0.620458 120.119 0.621249 120.639 0.626764C122.876 0.651977 125.148 0.566886 127.34 0.718553C129.888 0.89425 132.429 0.88519 134.976 0.94113C135.909 0.961615 136.848 0.92025 137.781 0.947039C140.635 1.03095 143.487 1.13179 146.339 1.23461C146.523 1.24013 146.694 1.31497 146.946 1.37603C146.783 1.5604 146.638 1.72428 146.471 1.91298C146.658 1.97089 146.812 2.05795 146.984 2.06661C148.227 2.12846 149.474 2.17179 150.716 2.22576C151.65 2.26673 152.586 2.30179 153.513 2.36522C154.007 2.3991 154.628 2.42194 154.62 2.74655C154.612 3.04279 154.387 3.30989 153.692 3.40916C153.306 3.4647 152.875 3.45604 152.466 3.48204C151.93 3.51552 151.394 3.55452 150.858 3.59116C150.866 3.64552 150.872 3.70028 150.879 3.75464C151.683 3.78064 152.485 3.81097 153.288 3.83225C154.187 3.85549 154.995 3.94886 155.786 4.17577C156.314 4.32783 157.05 4.35225 157.706 4.39282C158.413 4.43616 159.164 4.38495 159.803 4.6867C159.167 5.01958 158.346 4.90179 157.637 4.89904C156.023 4.89234 154.412 4.82891 152.799 4.82143C148.789 4.80331 144.777 4.81434 140.767 4.79031C139.256 4.78164 137.749 4.67134 136.24 4.67567C133.848 4.68198 131.456 4.75958 129.065 4.78046C126.824 4.79937 124.582 4.78282 122.342 4.78558C121.934 4.78637 121.525 4.80646 121.085 4.93961C121.966 4.98452 122.847 5.06016 123.731 5.0704C127.744 5.11531 131.758 5.13107 135.77 5.18267C136.746 5.19567 137.716 5.3564 138.691 5.35995C143.173 5.37846 147.656 5.34931 152.137 5.36979C155.42 5.38516 158.703 5.44661 161.986 5.49822C162.476 5.5061 162.961 5.57228 163.742 5.63452C162.431 6.13837 161.014 5.56992 159.96 6.02492C160.278 6.44958 161.18 6.52679 161.977 6.6367C164.281 6.95225 166.656 7.0854 169.048 7.18861C170.809 7.26464 172.556 7.39621 174.306 7.51006C174.441 7.51873 174.559 7.57861 174.928 7.68419C174.394 7.71767 174.081 7.75982 173.773 7.75155C169.922 7.64952 166.074 7.48722 162.218 7.44585C157.805 7.39897 153.385 7.44073 148.968 7.47816C146.211 7.50179 143.455 7.58452 140.699 7.64913C140.182 7.66134 139.67 7.72043 139.153 7.7421C138.33 7.77676 137.506 7.79961 136.681 7.82246C136.474 7.82837 136.261 7.80316 136.058 7.81419C130.972 8.08758 125.862 7.96625 120.764 8.01549C118.688 8.03597 116.611 8.01904 114.533 8.01904C114.525 8.06985 114.517 8.12106 114.51 8.17149C114.946 8.2034 115.382 8.25697 115.82 8.26328C120.563 8.32394 125.305 8.42085 130.046 8.42046C134.055 8.41928 138.061 8.29952 142.07 8.24083C142.927 8.22783 143.817 8.16322 144.653 8.50476C143.975 8.55992 143.299 8.64461 142.614 8.66549C139.446 8.75924 136.276 8.85025 133.103 8.91407C129.716 8.98222 126.327 9.03697 122.939 9.06297C120.646 9.0807 118.347 9.00073 116.056 9.03146C111.053 9.09882 106.055 9.23355 101.051 9.2954C95.7899 9.35961 90.5221 9.40649 85.2575 9.39546C79.0423 9.38207 72.8456 9.50892 66.6514 9.70116C65.9236 9.72401 65.1911 9.73464 64.4618 9.73464Z" fill="#F8F1C7"/>
</svg>
